<?xml version="1.0" standalone="no"?>
<!DOCTYPE svg PUBLIC "-//W3C//DTD SVG 20010904//EN"
 "http://www.w3.org/TR/2001/REC-SVG-20010904/DTD/svg10.dtd">
<svg version="1.0" xmlns="http://www.w3.org/2000/svg"
 width="907.000000pt" height="907.000000pt" viewBox="0 0 907.000000 907.000000"
 preserveAspectRatio="xMidYMid meet">
<metadata>
Created by potrace 1.14, written by Peter Selinger 2001-2017
</metadata>
<g transform="translate(0.000000,907.000000) scale(0.100000,-0.100000)"
fill="#000000" stroke="none">
<path d="M4538 9065 c-1 -1 -84 -5 -183 -9 -99 -3 -193 -8 -210 -10 -16 -2
-61 -7 -100 -10 -38 -4 -99 -12 -135 -17 -36 -6 -76 -12 -90 -14 -14 -2 -54
-9 -90 -15 -36 -6 -78 -13 -95 -16 -16 -3 -48 -10 -70 -16 -22 -5 -50 -12 -61
-14 -62 -11 -267 -69 -388 -109 -231 -76 -402 -147 -626 -260 -182 -91 -260
-137 -469 -273 -235 -154 -459 -338 -692 -571 -296 -296 -528 -597 -723 -936
-31 -55 -61 -107 -67 -115 -5 -8 -12 -22 -15 -30 -3 -8 -9 -22 -14 -30 -125
-220 -303 -685 -375 -981 -9 -35 -17 -71 -19 -79 -8 -30 -57 -285 -62 -319 -3
-20 -7 -47 -10 -61 -2 -14 -6 -50 -9 -80 -4 -30 -8 -65 -10 -78 -13 -79 -20
-242 -20 -482 0 -237 9 -472 20 -490 1 -3 5 -34 9 -70 10 -107 46 -319 81
-470 2 -8 8 -35 14 -60 65 -286 201 -650 356 -955 321 -632 760 -1157 1325
-1584 102 -77 373 -261 384 -261 2 0 34 -18 71 -41 140 -85 440 -231 600 -291
130 -50 272 -100 294 -104 14 -3 28 -7 32 -10 18 -11 308 -87 414 -108 140
-28 242 -45 380 -61 28 -4 61 -8 75 -10 130 -19 636 -26 805 -12 121 11 236
23 285 32 14 2 45 7 70 10 119 16 331 60 485 102 473 127 915 328 1331 603 69
45 294 208 304 220 3 3 19 16 35 29 77 59 269 233 372 337 404 411 724 885
948 1409 67 157 143 366 171 470 2 6 12 42 24 80 11 39 23 83 26 99 2 16 7 32
9 36 2 3 6 17 8 31 3 13 10 42 15 64 6 22 13 51 15 65 3 14 12 63 21 110 8 47
18 103 21 125 3 22 8 51 10 65 3 14 7 52 11 85 3 33 8 74 10 90 25 213 25 757
0 915 -3 14 -7 52 -10 85 -4 33 -8 71 -10 85 -3 14 -7 43 -10 65 -3 22 -8 51
-11 65 -3 14 -9 50 -15 80 -15 83 -19 100 -24 118 -3 9 -8 31 -11 47 -12 61
-16 80 -36 154 -155 580 -416 1109 -782 1591 -214 281 -477 550 -782 799 -66
54 -231 172 -342 245 -475 312 -1022 537 -1568 645 -166 33 -199 38 -265 46
-25 3 -54 8 -65 10 -11 2 -54 7 -95 10 -41 4 -86 8 -100 11 -14 2 -97 6 -185
9 -88 4 -165 8 -172 10 -6 2 -13 2 -15 0z m-950 -2277 c-8 -13 -30 -49 -49
-81 -19 -32 -42 -71 -51 -85 -10 -15 -21 -34 -25 -42 -4 -8 -30 -53 -58 -100
-29 -47 -105 -175 -170 -285 -65 -110 -144 -243 -175 -295 -77 -128 -592 -996
-618 -1040 -11 -19 -38 -66 -61 -103 -23 -38 -52 -86 -64 -107 -12 -20 -69
-117 -127 -215 -101 -170 -105 -176 -111 -144 -8 51 -7 434 1 482 4 23 10 67
14 98 6 66 47 255 74 349 39 132 126 352 175 440 11 19 31 55 45 80 178 322
473 636 797 849 80 53 395 221 413 221 2 0 -2 -10 -10 -22z m2110 -94 c185
-100 381 -244 541 -399 390 -376 660 -908 726 -1431 4 -27 9 -60 11 -74 8 -42
12 -392 5 -443 l-6 -49 -32 54 c-17 29 -78 132 -135 228 -167 280 -284 476
-458 770 -89 151 -172 291 -185 310 -23 37 -106 178 -115 195 -3 6 -71 120
-152 255 -159 267 -164 276 -223 376 -59 100 -66 111 -123 207 -28 48 -52 90
-52 92 0 7 104 -41 198 -91z m-1059 -811 c52 -87 103 -174 116 -193 12 -19 45
-73 72 -120 28 -47 158 -267 290 -490 133 -223 249 -419 259 -437 11 -17 62
-103 114 -190 52 -87 100 -167 106 -178 6 -11 51 -87 101 -170 141 -236 203
-343 203 -349 0 -3 -612 -6 -1361 -6 -748 0 -1359 4 -1357 8 2 5 84 144 183
311 99 166 191 321 204 344 13 23 33 58 46 77 12 19 89 148 170 285 81 138
246 414 365 615 119 201 255 429 301 507 46 79 87 143 90 143 3 0 47 -71 98
-157z m1425 -3264 c7 -7 -186 -146 -279 -201 -249 -149 -559 -263 -855 -314
-114 -19 -287 -31 -435 -28 -195 2 -269 9 -425 40 -41 8 -86 16 -98 19 -13 2
-83 22 -156 44 -234 70 -435 166 -646 307 -69 46 -140 96 -158 111 l-33 28
1540 0 c847 0 1542 -3 1545 -6z"/>
<path d="M4139 5057 c-55 -13 -67 -44 -104 -267 -3 -19 -11 -53 -16 -74 l-11
-39 -19 32 c-21 35 -49 49 -88 45 -14 -1 -32 -2 -38 -3 -8 -1 -13 -15 -13 -35
0 -60 11 -92 40 -111 27 -18 27 -20 14 -52 -21 -50 -28 -136 -14 -192 11 -46
10 -52 -12 -81 -19 -26 -24 -47 -28 -128 -3 -53 -3 -147 0 -209 6 -142 8 -143
138 -142 112 2 131 12 136 79 2 25 4 50 5 56 1 6 7 11 14 11 6 1 44 4 82 8 39
3 93 8 120 10 60 5 336 6 385 1 19 -2 69 -7 110 -10 116 -10 119 -12 118 -55
-1 -87 19 -101 146 -101 103 0 126 16 127 88 0 50 0 285 -1 340 0 31 -23 65
-50 74 -10 3 -9 14 5 51 19 52 17 150 -6 199 -10 23 -8 31 14 60 26 33 31 56
29 116 -2 32 -2 32 -44 26 -24 -3 -49 -6 -56 -7 -11 0 -43 -47 -42 -62 1 -25
-2 -28 -10 -14 -8 14 -27 100 -45 204 -4 22 -9 51 -11 65 -10 56 -27 92 -51
108 -23 14 -68 16 -408 17 -209 0 -397 -3 -416 -8z m766 -91 c10 -7 25 -56 40
-136 14 -69 25 -128 25 -132 0 -5 -196 -8 -435 -8 -343 0 -433 3 -430 13 3 6
14 63 25 126 11 67 26 121 35 131 16 17 42 18 370 18 254 0 359 -3 370 -12z
m-739 -567 c57 -63 -24 -152 -94 -103 -30 21 -28 60 6 93 33 33 64 36 88 10z
m850 -7 c20 -25 17 -65 -6 -90 -51 -54 -137 1 -111 70 5 15 18 31 28 37 24 15
72 5 89 -17z m-662 -144 c-1 -46 -2 -86 -3 -90 -2 -15 -30 -8 -39 10 -10 21
-8 150 3 175 7 16 9 16 24 3 13 -12 16 -32 15 -98z m141 -2 c0 -56 -4 -84 -14
-94 -12 -12 -16 -11 -26 8 -16 29 -12 165 6 186 21 25 33 -10 34 -100z m140 9
c2 -96 -10 -129 -37 -102 -22 22 -22 172 0 193 25 25 35 1 37 -91z m140 71 c3
-11 4 -53 3 -93 -3 -81 -20 -111 -43 -80 -14 20 -16 172 -2 194 11 17 36 5 42
-21z m-653 -143 c23 -20 23 -36 0 -57 -18 -15 -20 -15 -37 4 -15 17 -16 24 -7
45 14 29 19 31 44 8z m888 -33 c0 -8 -7 -24 -15 -34 -14 -19 -15 -19 -35 -1
-24 22 -25 33 -4 56 13 15 20 16 35 6 10 -6 19 -19 19 -27z"/>
</g>
</svg>
